<?xml version="1.0" encoding="utf-8"?>
<!-- Generator: Adobe Illustrator 24.2.1, SVG Export Plug-In . SVG Version: 6.00 Build 0)  -->
<svg version="1.1" id="Layer_1" xmlns="http://www.w3.org/2000/svg" xmlns:xlink="http://www.w3.org/1999/xlink" x="0px" y="0px"
	 viewBox="0 0 249 100" style="enable-background:new 0 0 249 100;" xml:space="preserve">
<style type="text/css">
	.st0{fill:none;}
	.st1{fill:#DB5009;}
	.st2{fill:#938874;}
	.st3{fill-rule:evenodd;clip-rule:evenodd;fill:#595757;}
</style>
<g>
	<polyline class="st0" points="-195.1,-488.1 -195.1,-458.8 -224.2,-458.8 	"/>
</g>
<g>
	<polyline class="st0" points="63.5,-356.4 63.5,-384.9 92,-384.9 	"/>
</g>
<g>
	<g>
		<g>
			<path class="st1" d="M163.5,49.6c0.6-1-0.2-1.1-0.6-1.2c-8.2-0.2-15.1,4.8-19.8,8.9c-0.2,0.2,0,0.5,0.2,0.3
				c4.9-3.9,10-5.1,16.6-5.8C161.6,51.6,162.8,50.7,163.5,49.6z"/>
			<path class="st1" d="M165.7,42.7c0.6-1.1-0.3-1.1-0.7-1.1c-8.2,0.4-15.1,5.8-19.5,10.2c-0.2,0.2,0,0.5,0.3,0.3
				c4.6-4.3,9.5-5.7,16-6.9C163.4,44.9,165.1,43.8,165.7,42.7z"/>
			<path class="st1" d="M167.4,36c0.5-1.1-0.3-1.1-0.8-1.1c-8.2,0.7-15.2,6.4-19.4,10.9c-0.2,0.2,0,0.5,0.3,0.3
				c4.5-4.4,9.3-6.1,15.8-7.5C165,38.3,166.9,37.2,167.4,36z"/>
			<path class="st1" d="M159.4,31.9c0.4-1.1-0.8-0.9-1.5-0.5c-2.6,1.7-4.3,3.5-8.4,8.1c-0.2,0.2,0.1,0.5,0.3,0.3
				c3.9-3.8,5.8-4,7.5-5.1C158.7,33.8,158.9,33,159.4,31.9z"/>
			<path class="st2" d="M192.5,57.7c-4.9-2.3-9.5-4-14.9-5.3c-0.3-0.1-0.3-0.4,0.1-0.4c3.3-0.1,11.7,1.5,18.4,3.5
				c8.3,2.4,15.5,6.8,18.3,7.3c0.3,0.1,0.2,0.3,0,0.3C207.6,65.1,198.9,60.6,192.5,57.7z"/>
			<path class="st2" d="M196.2,50.4c-5-2-10.3-3.6-15.8-4.6c-0.3-0.1-0.4-0.4,0.1-0.4c3.2-0.3,12.3,0.9,19.2,2.5
				c8.4,2,16,6,18.8,6.4c0.3,0,0.2,0.3,0,0.3C211.8,56.8,202.8,53.1,196.2,50.4z"/>
			<path class="st2" d="M199.1,42.8c-5.2-1.6-10.6-2.7-16.1-3.3c-0.3,0-0.4-0.3,0.1-0.4c3.2-0.6,12.1,0.2,19,1.3
				c8.6,1.3,17,5,19.9,5.2c0.3,0,0.3,0.2,0.1,0.3C215.4,48.4,205.9,44.9,199.1,42.8z"/>
			<path class="st2" d="M204.8,35.8c-5.2-1.6-4.3-1.7-9.8-2.3c-0.3,0-0.4-0.4,0.1-0.4c3.8-0.3,7.1-0.2,14,0.8
				c8.6,1.3,13.6,3.2,16.5,3.4c0.3,0,0.3,0.2,0,0.3C219,40.2,211.6,37.9,204.8,35.8z"/>
			<path class="st1" d="M161.9,29c-0.2,0.1-0.4-0.2-0.2-0.3c3.3-2.3,21.8-16.7,48-3.1c0.2,0.1,0.1,0.4-0.1,0.4
				C193.9,22.7,177,20.8,161.9,29z"/>
		</g>
		<g>
			<path class="st3" d="M68.8,48h-1.2c-0.1,1-0.1,2.2-0.2,3.7h1.2C68.6,50.3,68.6,49.1,68.8,48z M70.4,48h-1.1
				c-0.2,1.3-0.2,2.5-0.1,3.7h1.2C70.3,50.3,70.3,49.1,70.4,48z M65.9,48c-0.3,1.4-0.6,2.6-1.1,3.7h1.5c0.3-0.9,0.6-2.1,0.9-3.7
				H65.9z M80.4,48h-1.2c-0.1,1-0.1,2.2-0.2,3.7h1.2C80.2,50.3,80.2,49.1,80.4,48z M82,48h-1.1c-0.1,1.3-0.2,2.5-0.1,3.7H82
				C81.9,50.3,81.9,49.1,82,48z M77.5,48c-0.3,1.4-0.6,2.6-1.1,3.7h1.5c0.3-0.9,0.6-2.1,0.9-3.7H77.5z M51.1,60.7H37.5
				c-0.4,0-0.5-0.2-0.5-0.6l0.7-5.1c0.1-0.5,0.4-0.8,0.8-0.8h13.4c0.4,0,0.7,0.3,0.6,0.8l-0.7,5.1C51.7,60.4,51.3,60.7,51.1,60.7z
				 M54.1,43h-2.6c0.6,1.6,1.3,3.3,2.1,5.1H38l7.5-7.4h-3.2l-7.6,7.4c-0.9,0.9-0.2,1.7,0.5,1.7h17.5l1.1-1.3
				c0.3,0.6,0.6,1.1,0.8,1.3h3.1C56.1,47.7,54.9,45.4,54.1,43z M54.8,54.7c0.2-1.2-0.6-2.4-1.9-2.4h-15c-1.3,0-2.5,1.1-2.6,2.3
				l-0.7,5.7c-0.2,1.4,0.6,2.3,1.9,2.3h15.2c1.3,0,2.2-1,2.4-2.4L54.8,54.7z M63.7,40.6h-2.3c0.3,1.7,0.9,3.5,1.5,5.3h2.5
				C64.5,44.1,63.9,42.3,63.7,40.6z M76.9,44.1H72l-0.2,1.3h4.9L76.9,44.1z M76.7,46h-5l-0.2,1.3h5L76.7,46z M74.3,50.4H73
				c-0.3,0-0.3-0.1-0.3-0.4l0.1-0.4c0-0.3,0.1-0.4,0.4-0.4h1.3c0.2,0,0.3,0.1,0.3,0.4L74.6,50C74.6,50.3,74.5,50.4,74.3,50.4z
				 M76.5,49.3c0.1-0.9-0.2-1.3-1.1-1.3h-2.8c-1,0-1.5,0.4-1.6,1.3l-0.2,1.1c-0.1,0.8,0.3,1.2,1.1,1.2h2.9c0.8,0,1.3-0.4,1.4-1.2
				L76.5,49.3z M80.5,59.6c0.1-0.9-0.3-1.6-1.4-1.6H67.1c-0.3,0-0.4-0.2-0.4-0.4l0.1-0.4c0-0.4,0.2-0.4,0.5-0.4h11.6
				c1,0,1.8-0.6,1.9-1.6l0.1-1.1c0.1-1-0.4-1.5-1.5-1.5H65.5l-0.2,1.5h12.8c0.3,0,0.4,0.2,0.4,0.4l0,0.3c0,0.2-0.3,0.5-0.5,0.5H66.8
				c-1.3,0-2,0.5-2.2,1.7l-0.1,0.9c-0.1,1,0.4,1.6,1.5,1.6h11.9c0.3,0,0.4,0.3,0.4,0.5l-0.1,0.6c0,0.3-0.3,0.4-0.5,0.4H64.4l0.8,1.6
				h13.2c1.1,0,1.9-0.9,2-1.6L80.5,59.6z M61.9,53.3c-0.6,2.7-1.8,6-3.5,9.3h2.5c1.2-2.9,2.3-6.2,3.2-9.3H61.9z M62.8,46.8h-2.3
				c0.3,1.8,0.8,3.1,1.5,4.9h2.4C63.6,49.8,63.1,48.4,62.8,46.8z M82.2,44.9c0,0.9,0.1,1.7,0.4,2.5h-1.4c0-0.2-0.1-0.5-0.2-1l-0.8,1
				h-2.5c-0.6,0-0.9-0.3-0.8-0.8c0-0.3,0.4-0.7,1-1.2c0.6-0.6,1-1,1.3-1.3h-0.8c-0.5,0-0.8-0.2-0.9-0.7h-6l0.1-0.5
				c-1.8,1.6-3,2.7-3.7,3.3h1.8c-0.1-0.5-0.1-1-0.1-1.2h1.3c0,0.9,0.1,1.7,0.4,2.5h-1.5c-0.1-0.4-0.1-0.7-0.2-0.9l-0.7,0.9H66
				c-0.5,0-0.7-0.5-0.7-0.8c0-0.2,0.3-0.4,0.6-0.8c0.4-0.3,1-0.9,1.9-1.7h-1.2c-0.8,0-1-0.8-0.4-1.5c0.2-0.2,1-0.9,2.2-2.1h2.2
				c-0.9,0.9-1.8,1.7-2.6,2.4h1.1c0.4-0.4,0.6-0.6,0.7-0.7h1.6l0.1-0.4h2l0.2-1.3h2.2l-0.2,1.3h2.1l-0.1,0.7c0.6-0.5,1.2-1.2,2-2
				h1.9c-0.7,0.8-1.5,1.6-2.3,2.4h1c0.5-0.4,0.8-0.7,1.1-1.1h2c-1.5,1.6-3,3-4.3,4.2h1.8c-0.1-0.4-0.1-0.9-0.1-1.2H82.2z
				 M102.7,48.8H91c-0.4,0-0.5-0.2-0.4-0.5l0.1-0.9c0.1-0.4,0.3-0.6,0.6-0.6h11.6c0.4,0,0.6,0.3,0.6,0.6l-0.1,0.8
				C103.3,48.6,103.1,48.8,102.7,48.8z M105.8,47.2c0.2-1.3-0.5-1.9-1.8-1.9H90.5c-1,0-1.9,0.7-2.1,1.8l-0.2,1.5
				c-0.1,0.9,0.4,1.9,1.6,1.9h13.5c1.4,0,2.2-0.7,2.4-2L105.8,47.2z M106.7,54.3c0.2-1.6-0.5-2.4-2.1-2.4H88.5
				c-1.5,0-2.5,0.7-2.7,2.2l-1.1,8.6H87l1.1-8.6c0-0.4,0.3-0.6,0.6-0.6h15c0.4,0,0.6,0.3,0.5,0.6l-0.8,6.2c-0.1,0.5-0.3,0.7-0.8,0.7
				h-3.2l0.5,1.7h3.2c1.6,0,2.5-1,2.7-2.4L106.7,54.3z M102.8,56.8c0.2-1.2-0.6-1.9-1.8-1.9h-9.8c-1.1,0-1.9,0.8-2.1,1.7L88.9,58
				c-0.2,1.3,0.4,2,1.8,2h9.4c1.5,0,2.3-0.7,2.5-2L102.8,56.8z M99.8,58.4h-8.2c-0.4,0-0.5-0.2-0.4-0.5l0.1-1c0-0.3,0.2-0.5,0.6-0.5
				h8.1c0.4,0,0.6,0.2,0.6,0.6l-0.1,0.8C100.4,58.2,100.2,58.4,99.8,58.4z M124.9,50.9h-2.2c-0.3,0-0.4-0.2-0.4-0.4l0.1-0.6
				c0-0.2,0.2-0.4,0.5-0.4h2.2c0.3,0,0.4,0.2,0.4,0.4l-0.1,0.5C125.3,50.7,125.2,50.9,124.9,50.9z M134.3,45.4h-3.5
				c0.2-1.7,0.3-3.2,0.6-4.8h-2l-0.6,4.8h-3.2l0.2-1.4h2.5l0.2-1.6h-2.5l0.2-1.8H124l-0.2,1.8h-2.4l-0.2,1.6h2.4l-0.2,1.4h-2.7
				l-0.2,1.7h8.1c-0.5,5.2-0.7,8.8-0.7,10.4c-0.4,0.6-0.9,1.3-1.5,2c-0.4,0.1-1.4,0.3-2.7,0.4l0.2-1.5h2.4l0.2-1.7h-2.4l0.2-1.7h2.7
				l0.2-1.6h-7.4l-0.2,1.6h2.5l-0.2,1.7h-2.1l-0.2,1.7h2.1l-0.2,1.8c-0.9,0.1-1.8,0.2-2.7,0.2l-0.2,1.8c1.8-0.2,3.8-0.4,6.1-0.7
				c-0.5,0.4-0.9,0.9-1.3,1.2h2.6c0.6-0.6,1.3-1.4,2.1-2.4l0.1,1c0,0.6,0.8,1.4,2,1.4h1.6l0.9-1.8h-1.7c-0.5,0-0.8-0.2-0.8-0.5
				c-0.1-0.4-0.1-1.1-0.1-2.6c1.7-2.6,3.1-6.8,4-9.9h-2c-0.3,1.6-1.2,4.2-2,6c0-2,0.4-4.1,0.7-6.9h3.4L134.3,45.4z M119.2,42.1
				c-0.1-0.7-0.6-1.1-1.3-1.1h-1.4c-0.7,0-1.3,0.3-1.7,1.1c-0.8,2.1-1.8,3.9-3.1,5.5h1.6l-0.2,1.1h1.8l-0.3,2.4h-2.8l-0.2,1.7h2.8
				l-1,7.4c-0.9,0.2-1.9,0.4-3,0.7l-0.2,1.8c1.9-0.4,4.6-1.1,8-2.1l0.2-1.8c-1.3,0.4-2.1,0.7-2.8,0.8l0.9-6.8h2.7l0.2-1.7h-2.7
				l0.3-2.4h2l0.2-1.8h-4.7c0.8-1.1,1.4-2.4,2.1-3.9c0.1-0.3,0.3-0.4,0.5-0.4c0.1,0,0.3,0.1,0.3,0.3c0,0.9,0.3,2,0.7,3.5h2.4
				C119.8,45.1,119.4,43.7,119.2,42.1z M134.1,41.6h-2c0,0.8,0.1,1.7,0.2,3h2.1C134.1,43.1,134.1,42.4,134.1,41.6z M127.6,49.5
				c0.1-0.8-0.5-1.6-1.3-1.6h-4.1c-0.9,0-1.8,0.6-1.9,1.5l-0.2,1.3c-0.1,1,0.4,1.7,1.3,1.7h4.1c0.8,0,1.7-0.7,1.8-1.5L127.6,49.5z
				 M117.5,54c-0.5,1.7-1,3.1-1.3,4.1h1.8c0.6-1.6,1.1-3,1.4-4.1H117.5z M113,54h-1.8c-0.2,1.3-0.2,3-0.1,4.9h2
				C113,56.8,112.9,55.2,113,54z M108.8,42.3l-0.2,1.7h-22l0.2-1.7h9.9l0.2-1.7h2.2l-0.2,1.7H108.8z"/>
			<g>
				<polygon class="st3" points="32.1,68 24.4,68 24.2,69.3 27.2,69.3 26,77.5 27.4,77.5 28.6,69.3 31.4,69.3 				"/>
				<path class="st3" d="M38.1,77.5l-2.3-8.7h-1l-4.8,8.7h1.5l1.2-2.2h3.3l0.6,2.2H38.1z M35.8,74.2h-2.4l1.2-2.3
					c0.2-0.4,0.4-0.7,0.5-1c0,0.3,0.1,0.6,0.2,1.1L35.8,74.2z"/>
				<polygon class="st3" points="41,77.5 42.2,68.9 40.8,68.9 39.5,77.5 				"/>
				<path class="st3" d="M56,68.9h-1.5L52,74.2c-0.2,0.5-0.4,0.8-0.5,1.3c-0.1-0.4-0.2-0.8-0.3-1.3L50,68.9h-1.5l0.4,1.6L47,74.3
					c-0.2,0.4-0.4,0.8-0.6,1.3c-0.1-0.4-0.2-0.8-0.2-1.3l-1.1-5.4h-1.6l1.9,8.6h1.2l2.1-4c0.2-0.4,0.4-0.8,0.6-1.3
					c0.1,0.5,0.2,0.9,0.3,1.3l0.9,4h1.2L56,68.9z"/>
				<path class="st3" d="M61.8,77.5l-2.3-8.7h-1l-4.8,8.7h1.5l1.2-2.2h3.3l0.6,2.2H61.8z M59.4,74.2H57l1.2-2.3
					c0.2-0.4,0.4-0.7,0.5-1c0,0.3,0.1,0.6,0.2,1.1L59.4,74.2z"/>
				<path class="st3" d="M70.9,77.5l1.3-8.6h-1.4L70,74.1c-0.1,0.4-0.1,0.9-0.1,1.2c-0.2-0.4-0.4-0.7-0.8-1.3l-3.3-5.1h-1.5L63,77.5
					h1.4l0.8-5.4c0.1-0.4,0.1-0.8,0.1-1.1c0.2,0.4,0.4,0.7,0.7,1.2l3.5,5.3H70.9z"/>
				<polygon class="st3" points="83.6,77.5 85,68 83.6,68 83,72.1 77.8,72.1 78.4,68 77,68 75.6,77.5 77,77.5 77.6,73.3 82.8,73.3 
					82.2,77.5 				"/>
				<polygon class="st3" points="87.1,77.5 88.4,68.9 87,68.9 85.7,77.5 				"/>
				<path class="st3" d="M96.9,76.9l0.5-3.7H96l-0.4,3c-0.4,0.2-0.9,0.3-1.6,0.3c-2.1,0-3.2-1.2-2.9-3.2c0.3-1.8,1.6-3.2,3.9-3.2
					c1,0,1.8,0.3,2.4,0.6l0.2-1.3c-0.6-0.2-1.4-0.5-2.5-0.5c-2.9,0-5.2,1.9-5.6,4.5c-0.4,2.5,1.1,4.3,4,4.3
					C94.9,77.6,96.1,77.3,96.9,76.9z"/>
				<polygon class="st3" points="106.2,77.5 107.5,68.9 106.1,68.9 105.5,72.5 101,72.5 101.5,68.9 100.1,68.9 98.8,77.5 
					100.2,77.5 100.8,73.7 105.3,73.7 104.8,77.5 				"/>
				<path class="st3" d="M116.9,75c0.4-2.9-3.9-2.8-3.7-4.7c0.1-0.8,0.9-1.1,1.8-1.1c0.8,0,1.5,0.3,2.2,0.7l0.2-1.4
					c-0.5-0.3-1.2-0.5-2.3-0.5c-2,0-3.2,1.2-3.4,2.5c-0.1,0.7,0.1,1.2,0.4,1.6c1,1.3,3.3,1.6,3.1,3.1c-0.1,0.9-1.2,1.3-2,1.3
					c-0.9,0-1.7-0.4-2.1-0.7l-0.8,1.1c0.6,0.4,1.4,0.8,2.8,0.8C115.1,77.7,116.7,76.6,116.9,75z"/>
				<path class="st3" d="M124.5,71.6c0.3-1.8-0.8-2.7-2.8-2.7h-2.1l-1.3,8.6h1.4l0.4-3h0.4C123.2,74.5,124.3,73.1,124.5,71.6z
					 M123.1,71.7c-0.1,1-0.8,1.7-2,1.7h-0.6l0.5-3.3h0.6C122.7,70.1,123.2,70.7,123.1,71.7z"/>
				<polygon class="st3" points="130,77.5 130.2,76.3 126.8,76.3 127.2,73.7 130.1,73.7 130.3,72.5 127.4,72.5 127.7,70.1 
					130.7,70.1 131.3,68.9 126.5,68.9 125.2,77.5 				"/>
				<polygon class="st3" points="136.9,77.5 137,76.3 133.6,76.3 134,73.7 136.9,73.7 137.1,72.5 134.2,72.5 134.5,70.1 137.5,70.1 
					138.1,68.9 133.3,68.9 132,77.5 				"/>
				<path class="st3" d="M146.8,73.1c0.4-2.5-1-4.2-4.3-4.2h-2.5l-1.3,8.6h2.4C144.4,77.5,146.4,75.7,146.8,73.1z M145.3,73.1
					c-0.2,1.7-1.4,3.2-3.9,3.2h-1.1l0.9-6.3h1.1C144.6,70.1,145.5,71.4,145.3,73.1z"/>
				<path class="st3" d="M156.7,77.5c-1.2-2.4-2-4.1-2.4-4.3c1.2-0.4,2.1-1.2,2.2-2.5c0.2-1.4-0.6-2.7-3.1-2.7h-2.2l-1.4,9.5h1.4
					l0.6-3.8h0.9c0.5,0,1.1,1.3,2.3,3.8H156.7z M155,70.8c-0.1,0.9-1,1.6-2,1.6H152l0.5-3.1h0.9C154.7,69.3,155.1,70,155,70.8z"/>
				<path class="st3" d="M165.5,77.5l-2.3-8.7h-1l-4.8,8.7h1.5l1.2-2.2h3.3l0.6,2.2H165.5z M163.3,74.2h-2.4l1.2-2.3
					c0.2-0.4,0.4-0.7,0.5-1c0,0.3,0.1,0.6,0.2,1.1L163.3,74.2z"/>
				<polygon class="st3" points="168.5,77.5 169.7,68.9 168.3,68.9 167,77.5 				"/>
				<path class="st3" d="M175.3,77.5l0.2-1.2h-3.3l1.1-7.4h-1.4l-1.3,8.6H175.3z"/>
			</g>
		</g>
	</g>
	<rect x="1.4" y="-2.8" class="st0" width="246.4" height="102.5"/>
	<rect x="24" y="19.9" class="st0" width="201.5" height="57.6"/>
</g>
</svg>
